<?xml version="1.0" standalone="no"?><!DOCTYPE svg PUBLIC "-//W3C//DTD SVG 1.1//EN" "http://www.w3.org/Graphics/SVG/1.1/DTD/svg11.dtd"><svg t="1684304654364" class="icon" viewBox="0 0 1040 1024" version="1.1" xmlns="http://www.w3.org/2000/svg" p-id="7283" xmlns:xlink="http://www.w3.org/1999/xlink" width="130" height="128"><path d="M1016.246154 512c0 278.449231-225.673846 504.123077-504.123077 504.123077S8 790.449231 8 512 233.673846 7.876923 512.123077 7.876923s504.123077 225.673846 504.123077 504.123077" fill="#8c7bfd" p-id="7284" data-spm-anchor-id="a313x.7781069.0.i3" class="selected"></path><path d="M527.876923 825.974154c-43.874462 0-86.409846-8.428308-126.660923-25.127385-18.195692-7.561846-35.761231-16.777846-52.381538-27.490461-7.325538 0.630154-29.223385 4.096-91.21477 21.031384-8.192 2.205538-16.935385-0.078769-22.921846-6.06523s-8.349538-14.729846-6.065231-22.921847c16.935385-61.991385 20.401231-83.889231 21.031385-91.214769A328.814277 328.814277 0 0 1 197.046154 495.143385c0-182.429538 148.401231-330.830769 330.830769-330.83077s330.830769 148.401231 330.830769 330.83077-148.401231 330.830769-330.830769 330.830769z m-175.576615-100.036923c9.531077 0 13.784615 2.205538 18.038154 5.041231a282.033231 282.033231 0 0 0 157.538461 47.734153c156.356923 0 283.569231-127.212308 283.569231-283.56923s-127.212308-283.569231-283.569231-283.569231-283.569231 127.212308-283.569231 283.569231a282.324677 282.324677 0 0 0 47.734154 157.538461c6.301538 9.452308 9.294769 19.062154-7.483077 85.779692 36.706462-9.294769 56.162462-12.524308 67.741539-12.524307z m-8.27077 44.268307c0.078769 0 0.078769 0 0 0 0.078769 0 0.078769 0 0 0zM252.736 678.912s0.078769 0 0 0c0.078769 0 0 0 0 0z" fill="#FFFFFF" p-id="7285"></path><path d="M504.246154 332.642462h47.261538v196.923076h-47.261538z" fill="#FFFFFF" p-id="7286"></path><path d="M527.876923 657.565538c21.740308 0 39.384615-17.644308 39.384615-39.384615s-17.644308-39.384615-39.384615-39.384615-39.384615 17.644308-39.384615 39.384615 17.644308 39.384615 39.384615 39.384615" fill="#FFFFFF" p-id="7287"></path></svg>