<?xml version="1.0" standalone="no"?><!DOCTYPE svg PUBLIC "-//W3C//DTD SVG 1.1//EN" "http://www.w3.org/Graphics/SVG/1.1/DTD/svg11.dtd"><svg t="1684304474248" class="icon" viewBox="0 0 1024 1024" version="1.1" xmlns="http://www.w3.org/2000/svg" p-id="21727" xmlns:xlink="http://www.w3.org/1999/xlink" width="128" height="128"><path d="M381.8496 477.4912H206.3872c-59.4944 0-107.776-48.2304-107.776-107.776V206.2336c0-59.4944 48.2304-107.776 107.776-107.776h175.4624c59.4944 0 107.776 48.2304 107.776 107.776v163.4816c-0.0512 59.5456-48.2816 107.776-107.776 107.776zM381.8496 932.7104H206.3872c-59.4944 0-107.776-48.2304-107.776-107.776v-163.4816c0-59.4944 48.2304-107.776 107.776-107.776h175.4624c59.4944 0 107.776 48.2304 107.776 107.776v163.4816c-0.0512 59.4944-48.2816 107.776-107.776 107.776zM835.0208 932.7104h-175.4624c-59.4944 0-107.776-48.2304-107.776-107.776v-163.4816c0-59.4944 48.2304-107.776 107.776-107.776h175.4624c59.4944 0 107.776 48.2304 107.776 107.776v163.4816c0 59.4944-48.2816 107.776-107.776 107.776z" fill="#8C7BFD" p-id="21728"></path><path d="M747.3152 288m-182.3744 0a182.3744 182.3744 0 1 0 364.7488 0 182.3744 182.3744 0 1 0-364.7488 0Z" fill="#FFE37B" p-id="21729"></path></svg>